<svg xmlns="http://www.w3.org/2000/svg" xmlns:xlink="http://www.w3.org/1999/xlink" height="352" version="1.1" width="464" style="overflow: hidden; position: relative;">
  <desc>Created with Rapha&#xEB;l 2.1.0</desc>
  <defs>
    <path stroke-linecap="round" d="M5,0 0,2.5 5,5z" id="raphael-marker-block"/>
    <marker id="raphael-marker-endblock55" markerHeight="5" markerWidth="5" orient="auto" refX="2.5" refY="2.5">
      <use xlink:href="#raphael-marker-block" transform="rotate(180 2.5 2.5) scale(1,1)" stroke-width="1.0000" fill="#000" stroke="none"/>
    </marker>
    <path stroke-linecap="round" d="M6,1 1,3.5 6,6" id="raphael-marker-open"/>
    <marker id="raphael-marker-endopen77" markerHeight="7" markerWidth="7" orient="auto" refX="4" refY="3.5">
      <use xlink:href="#raphael-marker-open" transform="rotate(180 3.5 3.5) scale(1,1)" stroke-width="1.0000" fill="none" stroke="#000"/>
    </marker>
  </defs>
  <rect x="10" y="10" width="126" height="29" r="0" rx="0" ry="0" fill="none" stroke="#000000" stroke-width="2" style=""/>
  <rect x="15" y="15" width="116" height="19" r="0" rx="0" ry="0" fill="#ffffff" stroke="none" style=""/>
  <text x="73" y="24.5" text-anchor="middle" font="10px &quot;Arial&quot;" stroke="none" fill="#ff0000" font-size="16px" font-family="Andale Mono, monospace" style="text-anchor: middle; font-style: normal; font-variant: normal; font-weight: normal; font-size: 16px; line-height: normal; font-family: 'Andale Mono', monospace;">
    <tspan dy="6">Conversation</tspan>
  </text>
  <rect x="10" y="49" width="78" height="39" r="0" rx="0" ry="0" fill="none" stroke="#000000" stroke-width="2" style=""/>
  <rect x="20" y="59" width="58" height="19" r="0" rx="0" ry="0" fill="#ffffff" stroke="none" style=""/>
  <a xlink:href="http://example.com">
    <text x="49" y="68.5" text-anchor="middle" font="10px &quot;Arial&quot;" stroke="none" fill="#ff0000" font-size="16px" font-family="Andale Mono, monospace" style="text-anchor: middle; font-style: normal; font-variant: normal; font-weight: normal; font-size: 16px; line-height: normal; font-family: 'Andale Mono', monospace;">
      <tspan dy="6">Andrew</tspan>
    </text>
  </a>
  <rect x="10" y="293" width="78" height="39" r="0" rx="0" ry="0" fill="none" stroke="#000000" stroke-width="2" style=""/>
  <rect x="20" y="303" width="58" height="19" r="0" rx="0" ry="0" fill="#ffffff" stroke="none" style=""/>
  <a xlink:href="http://example.com">
    <text x="49" y="312.5" text-anchor="middle" font="10px &quot;Arial&quot;" stroke="none" fill="#ff0000" font-size="16px" font-family="Andale Mono, monospace" style="text-anchor: middle; font-style: normal; font-variant: normal; font-weight: normal; font-size: 16px; line-height: normal; font-family: 'Andale Mono', monospace;">
      <tspan dy="6">Andrew</tspan>
    </text>
  </a>
  <path fill="none" stroke="#000000" d="M49,88L49,293" stroke-width="2" style=""/>
  <rect x="198" y="49" width="70" height="39" r="0" rx="0" ry="0" fill="none" stroke="#000000" stroke-width="2" style=""/>
  <rect x="208" y="59" width="50" height="19" r="0" rx="0" ry="0" fill="#ffffff" stroke="none" style=""/>
  <text x="233" y="68.5" text-anchor="middle" font="10px &quot;Arial&quot;" stroke="none" fill="#000000" font-size="16px" font-family="Andale Mono, monospace" style="text-anchor: middle; font-style: normal; font-variant: normal; font-weight: normal; font-size: 16px; line-height: normal; font-family: 'Andale Mono', monospace;">
    <tspan dy="6">China</tspan>
  </text>
  <rect x="198" y="293" width="70" height="39" r="0" rx="0" ry="0" fill="none" stroke="#000000" stroke-width="2" style=""/>
  <rect x="208" y="303" width="50" height="19" r="0" rx="0" ry="0" fill="#ffffff" stroke="none" style=""/>
  <text x="233" y="312.5" text-anchor="middle" font="10px &quot;Arial&quot;" stroke="none" fill="#000000" font-size="16px" font-family="Andale Mono, monospace" style="text-anchor: middle; font-style: normal; font-variant: normal; font-weight: normal; font-size: 16px; line-height: normal; font-family: 'Andale Mono', monospace;">
    <tspan dy="6">China</tspan>
  </text>
  <path fill="none" stroke="#000000" d="M233,88L233,293" stroke-width="2" style=""/>
  <rect x="92" y="103" width="98" height="19" r="0" rx="0" ry="0" fill="#ffffff" stroke="none" style=""/>
  <text x="141" y="113" text-anchor="middle" font="10px &quot;Arial&quot;" stroke="none" fill="#0000ff" font-size="16px" font-family="Andale Mono, monospace" style="text-anchor: middle; font-style: normal; font-variant: normal; font-weight: normal; font-size: 16px; line-height: normal; font-family: 'Andale Mono', monospace;">
    <tspan dy="5.5">Says Hello</tspan>
  </text>
  <path fill="none" stroke="#000000" d="M49,127C49,127,198.57414960861206,127,228.00695346225984,127" stroke-width="2" marker-end="url(#raphael-marker-endblock55)" stroke-dasharray="0" style=""/>
  <rect x="253" y="147" width="126" height="48" r="0" rx="0" ry="0" fill="none" stroke="#000000" stroke-width="2" style=""/>
  <rect x="258" y="152" width="116" height="38" r="0" rx="0" ry="0" fill="#ffffff" stroke="none" style=""/>
  <text x="316" y="171" text-anchor="middle" font="10px &quot;Arial&quot;" stroke="none" fill="#0000ff" font-size="16px" font-family="Andale Mono, monospace" style="text-anchor: middle; font-style: normal; font-variant: normal; font-weight: normal; font-size: 16px; line-height: normal; font-family: 'Andale Mono', monospace;">
    <tspan dy="-4">China thinks</tspan>
    <tspan dy="19.2" x="316">about it</tspan>
  </text>
  <rect x="83" y="210" width="116" height="19" r="0" rx="0" ry="0" fill="#ffffff" stroke="none" style=""/>
  <text x="141" y="220" text-anchor="middle" font="10px &quot;Arial&quot;" stroke="none" fill="#0000ff" font-size="16px" font-family="Andale Mono, monospace" style="text-anchor: middle; font-style: normal; font-variant: normal; font-weight: normal; font-size: 16px; line-height: normal; font-family: 'Andale Mono', monospace;">
    <tspan dy="5.5">How are you?</tspan>
  </text>
  <path fill="none" stroke="#000000" d="M233,234C233,234,83.42585039138794,234,53.993046537740156,234" stroke-width="2" marker-end="url(#raphael-marker-endblock55)" stroke-dasharray="6,2" style=""/>
  <rect x="59" y="249" width="164" height="19" r="0" rx="0" ry="0" fill="#ffffff" stroke="none" style=""/>
  <text x="141" y="259" text-anchor="middle" font="10px &quot;Arial&quot;" stroke="none" fill="#0000ff" font-size="16px" font-family="Andale Mono, monospace" style="text-anchor: middle; font-style: normal; font-variant: normal; font-weight: normal; font-size: 16px; line-height: normal; font-family: 'Andale Mono', monospace;">
    <tspan dy="5.5">I am good thanks!</tspan>
  </text>
  <path fill="none" stroke="#000000" d="M49,273C49,273,211.05583953857422,273,230.99630416929722,273" stroke-width="2" marker-end="url(#raphael-marker-endopen77)" stroke-dasharray="0" style=""/>
</svg>
